<?xml version="1.0" ?><svg height="48px" version="1.1" viewBox="0 0 48 48" width="48px" xmlns="http://www.w3.org/2000/svg" xmlns:xlink="http://www.w3.org/1999/xlink"><title/><desc/><g fill="none" fill-rule="evenodd" id="Page-1" stroke="none" stroke-width="1"><g id="Artboard-Copy" transform="translate(-47.000000, -489.000000)"><path d="M58,516 L82,516 L82,506 L58,506 L58,516 Z M56,502 C54.896,502 53.999,502.896 53.999,504 L53.999,518 C53.999,519.105 54.896,520 56,520 L84,520 C85.104,520 86,519.105 86,518 L86,515 L88.001,515 L88.001,507 L86,507 L86,504 C86,502.896 85.104,502 84,502 L56,502 Z M57.001,504 L83,504 C83.552,504 84,504.447 84,505 L84,517 C84,517.553 83.552,518 83,518 L57.001,518 C56.447,518 56,517.553 56,517 L56,505 C56,504.447 56.447,504 57.001,504 L57.001,504 Z" fill="#000000" id="battery2"/><g id="slices" transform="translate(47.000000, 9.000000)"/></g></g></svg>