<?xml version="1.0" ?><svg enable-background="new 0 0 52 52" id="Layer_1" version="1.1" viewBox="0 0 52 52" xml:space="preserve" xmlns="http://www.w3.org/2000/svg" xmlns:xlink="http://www.w3.org/1999/xlink"><g><path d="M25.987793,35.9986229c-2.7600098,0-5,2.25-5,5c0,2.7600098,2.2399902,5,5,5s5-2.2399902,5-5   C30.987793,38.2486229,28.7478027,35.9986229,25.987793,35.9986229z"/><path d="M26.0336914,30.7527122c-3.3305664-0.0791016-6.4282227,1.3666992-8.7910156,4.0083008l1.4902344,1.3330078   c1.9702148-2.2021484,4.5517578-3.4101563,7.2666016-3.3417969c2.737793,0.0473633,5.3022461,1.3398438,7.2202148,3.6391602   l1.5361328-1.28125C32.4594727,32.3576927,29.3618164,30.8098412,26.0336914,30.7527122z"/><path d="M26.0488281,22.5032005c-4.8144531-0.0561523-9.3598633,1.9936523-12.8061523,5.8461914l1.4902344,1.3330078   c3.0537109-3.4125977,7.0864258-5.2319336,11.28125-5.1796875c4.2543945,0.0737305,8.234375,2.0761719,11.2055664,5.6386719   l1.5361328-1.28125C35.40625,24.8445091,30.8935547,22.5866966,26.0488281,22.5032005z"/><path d="M26.1225586,14.2546654c-7.0595703-0.109375-13.7578125,2.5908203-18.8398438,7.6401367l1.4101563,1.4189453   c4.6948242-4.6669922,10.855957-7.1713867,17.3950195-7.059082c6.5317383,0.1137695,12.6298828,2.8413086,17.1708984,7.6801758   l1.4580078-1.3681641C39.8032227,17.3298607,33.199707,14.3782005,26.1225586,14.2546654z"/><path d="M26.1674805,6.0061297C17.234375,5.857204,8.7329102,9.2126732,2.2905273,15.4758568l1.3945313,1.4335938   c6.0571289-5.8886719,14.0263672-9.027832,22.4477539-8.9038086c8.4213867,0.1469727,16.2817383,3.5874023,22.1333008,9.6875   l1.4433594-1.3847656C43.4863281,9.8210716,35.1254883,6.1623797,26.1674805,6.0061297z"/></g></svg>